<svg width="110" height="32" viewBox="0 0 110 32" fill="none" xmlns="http://www.w3.org/2000/svg">
<g>
<path fill-rule="evenodd" clip-rule="evenodd" d="M28.5948 6.40754C27.3971 6.44523 26.2368 6.67138 25.114 7.12367C23.9163 7.61366 22.8683 8.25442 21.9701 9.08363C21.0718 9.91284 20.3607 10.9305 19.7992 12.0989C19.2753 13.2674 18.9758 14.5489 18.9758 15.9435C18.9758 17.338 19.2378 18.6196 19.7992 19.8257C20.3607 20.9941 21.0718 22.0118 21.9701 22.8787C22.8683 23.7456 23.9163 24.424 25.114 24.8763C26.2368 25.3286 27.3596 25.5548 28.5573 25.5925C25.6754 29.4747 21.0344 32 15.8319 32C7.11126 32 0 24.8386 0 15.9812C0 7.16137 7.11126 0 15.9068 0C21.1092 0 25.7128 2.52532 28.5948 6.40754ZM31.1024 11.3074C31.5515 12.7774 31.7761 14.3604 31.7761 15.9812C31.7761 17.6019 31.5515 19.1472 31.1024 20.6549C30.5036 20.881 29.8299 21.0318 29.1562 21.0318C28.445 21.0318 27.7713 20.9187 27.1725 20.6549C26.5737 20.391 26.0122 20.0518 25.5631 19.5995C25.114 19.1472 24.7397 18.6196 24.4777 18.0165C24.2157 17.4134 24.1034 16.735 24.1034 16.0188C24.1034 15.3027 24.2157 14.662 24.4777 14.0589C24.7397 13.4558 25.0766 12.9282 25.5257 12.4759C25.9748 12.0236 26.4988 11.6843 27.1351 11.4205C27.7713 11.1567 28.445 11.0436 29.1562 11.0436C29.8673 10.9682 30.5036 11.0813 31.1024 11.3074ZM17.6284 11.0059V10.9305H17.6659C18.3396 9.72438 19.163 8.70671 20.211 7.80212C20.5852 7.50059 20.9595 7.19906 21.3338 6.93522H8.75808V10.9305H12.7628V25.1025H17.6284V20.881C17.5536 20.768 17.5162 20.6549 17.4413 20.5418C16.7302 19.1472 16.3933 17.6019 16.3933 15.9435C16.3933 14.285 16.7302 12.7397 17.4413 11.3828C17.4787 11.232 17.5536 11.119 17.6284 11.0059Z" fill="#04348C"/>
</g>
</svg>
